Coordinates
version=1
nRows=23
nColumns=28
inDegrees=yes

Units are S.I. units (second, meters, Newtons, ...)
Angles are in degrees.

endheader
time	pelvis_tilt	pelvis_list	pelvis_rotation	pelvis_tx	pelvis_ty	pelvis_tz	hip_flexion_r	hip_adduction_r	hip_rotation_r	knee_angle_r	ankle_angle_r	subtalar_angle_r	mtp_angle_r	hip_flexion_l	hip_adduction_l	hip_rotation_l	knee_angle_l	socket_flexion	socket_adduction	socket_rotation	socket_tx	socket_ty	socket_tz	foot_flex	lumbar_extension	lumbar_bending	lumbar_rotation
      0.31250000	      0.52853053	     -1.42140567	     -4.07315573	     -0.46000536	      1.02753332	      0.29573278	     15.00942684	      1.75614306	     -1.62182851	    -65.63407741	      9.96852473	    -13.43631696	     -3.18072909	      0.43520796	     -0.10657991	     -5.16457951	     -1.61747901	      0.22192022	      1.46012754	     15.39142681	      0.00014258	     -0.03165654	      0.00141014	     -1.48455637	    -10.30596330	     -2.14053668	      4.09382662
      0.31666667	      0.59125724	     -1.42881852	     -3.95231101	     -0.45516638	      1.02811454	      0.29557579	     15.54345672	      1.78988562	     -1.66401761	    -65.31175285	     10.02665432	    -13.42717690	     -3.18508604	      0.18289204	     -0.09162749	     -5.18662080	     -1.66158587	      0.24705098	      1.48968292	     15.43522950	      0.00116471	     -0.03133767	      0.00111439	     -1.41398013	    -10.49189411	     -2.12362862	      4.09011754
      0.32083333	      0.59360747	     -1.60701811	     -3.73615289	     -0.44921401	      1.02868304	      0.29525558	     15.97528660	      1.93851588	     -1.87704032	    -64.83853769	     10.42268653	    -13.28217736	     -3.18513373	     -0.41655459	     -0.22524746	     -5.12002281	     -1.50550283	      0.12890646	      1.43508202	     15.71850899	     -0.00039664	     -0.03111628	      0.00195517	     -1.02507712	    -10.38973722	     -1.88035685	      4.01151324
      0.32500000	      0.65736988	     -1.62701861	     -3.63978442	     -0.44436804	      1.02923509	      0.29522965	     16.49374310	      1.96993688	     -1.92747105	    -64.44683361	     10.51711357	    -13.24570615	     -3.18064086	     -0.66226141	     -0.24304656	     -5.16002435	     -1.55074821	      0.15407704	      1.46082624	     15.73431482	      0.00071679	     -0.03076299	      0.00159491	     -1.02563716	    -10.57705848	     -1.85334635	      3.99064268
      0.32916667	      0.92490815	     -2.38728466	     -3.34369766	     -0.43818559	      1.02993943	      0.29492802	     16.41095568	      2.73206901	     -2.31871286	    -63.62875281	     11.70477103	    -11.98074197	     -3.29298255	     -1.75666929	     -1.33530555	     -4.96215813	     -1.28648580	     -0.17523892	      1.77903616	     15.88957602	     -0.00276011	     -0.03161269	     -0.00091154	     -0.97734108	    -10.80286083	     -0.86559260	      3.41847663
      0.33333333	      0.98357040	     -2.38571474	     -3.24234873	     -0.43337368	      1.03039330	      0.29490050	     16.92808481	      2.74048544	     -2.36983062	    -63.19898353	     11.76312618	    -11.99117480	     -3.30370566	     -1.99998042	     -1.32330176	     -4.99699742	     -1.33347365	     -0.14574395	      1.80384564	     15.91819810	     -0.00175644	     -0.03129214	     -0.00113931	     -0.91768168	    -10.97703462	     -0.86968027	      3.41542689
      0.33750000	      0.97301423	     -2.50262875	     -3.01888179	     -0.42736723	      1.03094187	      0.29460224	     17.24144235	      2.83490482	     -2.55030942	    -62.41152629	     12.06258560	    -11.98441009	     -3.34637425	     -2.52253437	     -1.38960378	     -4.97122610	     -1.20450991	     -0.23874043	      1.73896092	     16.15212060	     -0.00279685	     -0.03096160	     -0.00034460	     -0.59237515	    -10.82765542	     -0.72672207	      3.36834748
      0.34166667	      1.02877455	     -2.51621196	     -2.94060374	     -0.42266187	      1.03124711	      0.29459070	     17.76963670	      2.84456568	     -2.61830012	    -61.96852505	     12.15070103	    -11.97495662	     -3.35047806	     -2.77377825	     -1.40359168	     -5.00422409	     -1.23982603	     -0.21718525	      1.75522417	     16.18911176	     -0.00193777	     -0.03073871	     -0.00064409	     -0.57548551	    -11.02491357	     -0.69053603	      3.35129983
      0.34583333	      1.74702968	     -3.52954574	     -2.49272556	     -0.41639625	      1.03261949	      0.29412882	     17.01449168	      3.84287481	     -3.19520486	    -60.71026273	     12.93381892	    -11.68470826	     -4.75010466	     -4.50798305	     -2.80989534	     -4.70714748	     -0.87827018	     -0.64532886	      2.10529706	     16.29817832	     -0.00679341	     -0.03159699	     -0.00315895	     -0.43922584	    -11.75684901	      0.57401630	      2.84075510
      0.35000000	      1.78099075	     -3.50723704	     -2.42739971	     -0.41173304	      1.03282087	      0.29420087	     17.54053238	      3.82630264	     -3.23465402	    -60.19895622	     13.01983713	    -11.68860422	     -4.75435776	     -4.73036874	     -2.79671741	     -4.74508644	     -0.91886568	     -0.62178229	      2.13408286	     16.32884058	     -0.00594922	     -0.03140146	     -0.00346307	     -0.39269899	    -11.92373975	      0.55371979	      2.83292197
      0.35416667	      1.72577020	     -3.54293794	     -2.25403418	     -0.40581732	      1.03324002	      0.29408126	     17.85335545	      3.86012681	     -3.32385391	    -59.25829424	     13.33147430	    -11.69465529	     -4.77565965	     -5.12923645	     -2.80166403	     -4.77346050	     -0.83107205	     -0.68585159	      2.09112222	     16.50041423	     -0.00649276	     -0.03092957	     -0.00289831	     -0.15549671	    -11.70340427	      0.58255760	      2.79089300
      0.35833333	      1.69258210	     -3.66297917	     -2.09157901	     -0.40020523	      1.03342513	      0.29381505	     18.22659369	      3.93543312	     -3.51825939	    -58.44564954	     13.66463090	    -11.67882615	     -4.81862960	     -5.56979276	     -2.87667121	     -4.82033304	     -0.71877582	     -0.76190639	      2.01772171	     16.67987303	     -0.00733126	     -0.03075808	     -0.00217274	     -0.00411671	    -11.60357252	      0.78176222	      2.71544991
      0.36250000	      1.69823815	     -3.75724390	     -1.97240829	     -0.39483852	      1.03363051	      0.29369245	     18.56800223	      3.99352660	     -3.68081213	    -57.59686717	     13.91967840	    -11.65669194	     -4.87662015	     -5.94517533	     -2.98657572	     -4.85067921	     -0.66727408	     -0.80989596	      2.01937907	     16.81034607	     -0.00749415	     -0.03065181	     -0.00224706	      0.10644782	    -11.60301315	      0.91367144	      2.62762531
      0.36666667	      1.72064128	     -3.85702410	     -1.82590484	     -0.38947189	      1.03382180	      0.29356950	     18.87914772	      4.05551158	     -3.84616567	    -56.72098889	     14.15793609	    -11.66644796	     -4.94485611	     -6.33261199	     -3.09928206	     -4.87871945	     -0.61938616	     -0.85249159	      2.01701903	     16.94883260	     -0.00764226	     -0.03050247	     -0.00221888	      0.23435954	    -11.59307421	      1.05476111	      2.53791660
      0.37083333	      2.18977216	     -4.68181668	     -1.40230187	     -0.38404362	      1.03439354	      0.29325586	     18.51753542	      4.85670831	     -4.41014605	    -55.49565812	     14.59986318	    -11.59774361	     -5.80442990	     -7.36593867	     -4.41514573	     -4.84014144	     -0.47746488	     -1.10781751	      2.44239573	     17.23492335	     -0.00996175	     -0.03130746	     -0.00583232	      0.29171077	    -12.15799972	      2.14512606	      1.86050947
      0.37500000	      2.17674541	     -4.64351505	     -1.32121667	     -0.37889064	      1.03452729	      0.29331196	     18.86670447	      4.80380907	     -4.48186977	    -54.57704482	     14.73468610	    -11.72066370	     -5.87745036	     -7.63664435	     -4.35980149	     -4.90489129	     -0.48220401	     -1.10087445	      2.42908300	     17.27949766	     -0.00960867	     -0.03100119	     -0.00570887	      0.44586240	    -12.13824201	      2.08203268	      1.88500553
      0.37916667	      2.14427983	     -4.63836934	     -1.21580404	     -0.37361411	      1.03461692	      0.29324829	     19.19550643	      4.76923827	     -4.59232290	    -53.59500829	     14.90019043	    -11.87819939	     -5.95972968	     -7.95486488	     -4.31452445	     -4.94285846	     -0.43923086	     -1.12070612	      2.37278768	     17.39849885	     -0.00966980	     -0.03066520	     -0.00517957	      0.59387114	    -12.09013902	      2.08416020	      1.89396659
      0.38333333	      2.11574075	     -4.65435925	     -1.09503789	     -0.36832085	      1.03461223	      0.29313586	     19.50136964	      4.74378508	     -4.73363723	    -52.57926187	     15.06803790	    -12.05713510	     -6.05458901	     -8.28949675	     -4.29149020	     -4.99037143	     -0.38919577	     -1.14476521	      2.31161281	     17.51995894	     -0.00984766	     -0.03047627	     -0.00462724	      0.73107112	    -12.04050648	      2.12258426	      1.88158230
      0.38750000	      2.09097453	     -4.67839867	     -0.97822704	     -0.36305965	      1.03460724	      0.29304466	     19.78632704	      4.72558788	     -4.89006888	    -51.52389618	     15.22816634	    -12.24735920	     -6.15891267	     -8.62481601	     -4.28985686	     -5.03595528	     -0.34203799	     -1.17024836	      2.26366327	     17.64176752	     -0.01003514	     -0.03028764	     -0.00417431	      0.86465542	    -12.00744885	      2.17301419	      1.85085548
      0.39166667	      2.07096207	     -4.70357557	     -0.86560029	     -0.35780156	      1.03457719	      0.29297829	     20.04552833	      4.71000000	     -5.05308652	    -50.42426712	     15.37787773	    -12.44667582	     -6.26977594	     -8.95589102	     -4.29775970	     -5.07885171	     -0.30105352	     -1.19455867	      2.22787304	     17.76061598	     -0.01014903	     -0.03008826	     -0.00382757	      0.99722768	    -11.97905727	      2.22191926	      1.80782210
      0.39583333	      2.04549174	     -4.74238184	     -0.71902860	     -0.35250893	      1.03453377	      0.29283209	     20.27230609	      4.70555667	     -5.22071470	    -49.25816965	     15.52156696	    -12.67967379	     -6.40332910	     -9.30169025	     -4.32691713	     -5.11975050	     -0.24743675	     -1.22279365	      2.17459460	     17.89615123	     -0.01050702	     -0.02993702	     -0.00346362	      1.13842266	    -11.95337189	      2.29740546	      1.75080706
      0.40000000	      2.59898429	     -5.56212499	     -0.23584722	     -0.34730984	      1.03516077	      0.29262944	     19.64700258	      5.56900008	     -5.73350346	    -47.56357117	     15.25074423	    -14.02277466	     -7.91853938	    -10.35988153	     -5.64451685	     -5.08244908	     -0.12489055	     -1.45664804	      2.57381192	     18.23203002	     -0.01255614	     -0.03063310	     -0.00650677	      1.23689557	    -12.63567746	      3.36780597	      1.06387019
      0.40416667	      2.52675072	     -5.48634059	     -0.22439068	     -0.34223932	      1.03491883	      0.29281088	     19.94830435	      5.48185715	     -5.78053802	    -46.41900647	     15.44585985	    -14.09222681	     -7.98310682	    -10.57152042	     -5.56733319	     -5.17719772	     -0.13913435	     -1.44953117	      2.58450144	     18.22141021	     -0.01229898	     -0.03043549	     -0.00665099	      1.37526348	    -12.58460737	      3.25982534	      1.10524295
